PathFileType	4	(X/Y/Z)	Patient4_TMGait_0pt7_02_left_09.trc.trc
DataRate	CameraRate	NumFrames	NumMarkers	Units	OrigDataRate	OrigDataStartFrame	OrigNumFrames
86.419753086420	86.419753086420	5	33	mm	86.419753086420	106	       141
Frame#	Time	Sacral			L.Shoulder			Chest			R.Shoulder			Neck			R.ASIS			L.ASIS			R.Thigh.Superior			R.Thigh.Lateral			R.Thigh.Inferior			R.Patella			L.Thigh.Superior			L.Thigh.Lateral			L.Thigh.Inferior			L.Patella			L.Shank.Superior			L.Shank.Lateral			L.Shank.Inferior			R.Shank.Superior			R.Shank.Lateral			R.Shank.Inferior			R.Heel			R.Midfoot.Superior			R.Midfoot.Lateral			R.Toe			L.Heel			L.Midfoot.Lateral			L.Midfoot.Superior			L.Toe			L.Elbow			L.Wrist			R.Elbow			R.Wrist			
		X1	Y1	Z1	X2	Y2	Z2	X3	Y3	Z3	X4	Y4	Z4	X5	Y5	Z5	X6	Y6	Z6	X7	Y7	Z7	X8	Y8	Z8	X9	Y9	Z9	X10	Y10	Z10	X11	Y11	Z11	X12	Y12	Z12	X13	Y13	Z13	X14	Y14	Z14	X15	Y15	Z15	X16	Y16	Z16	X17	Y17	Z17	X18	Y18	Z18	X19	Y19	Z19	X20	Y20	Z20	X21	Y21	Z21	X22	Y22	Z22	X23	Y23	Z23	X24	Y24	Z24	X25	Y25	Z25	X26	Y26	Z26	X27	Y27	Z27	X28	Y28	Z28	X29	Y29	Z29	X30	Y30	Z30	X31	Y31	Z31	X32	Y32	Z32	X33	Y33	Z33	

106	11.105000000000	784.635950486995	1018.537491707010	536.855436928521	970.533309742937	1426.058163429249	319.463354523791	1092.558863493452	1349.386040025181	464.499771336877	1046.438392480898	1439.083301627653	645.266031354340	1004.620183808979	1489.677703140211	468.020876695139	1019.924020310285	938.601890141186	623.004948969450	972.151794208827	962.766268909454	353.043778754084	1046.436121333968	736.090310276808	591.672176584528	962.219158547896	632.124113865853	655.186966656068	1029.621407747749	577.481464677638	569.007786891804	1024.340908439524	488.964034554641	573.951608821533	1068.129555355245	805.940756537836	384.735077037221	1040.758532942157	675.441873799109	305.185761322614	1151.373086095073	625.804940882313	366.492092919390	1179.827871197239	543.808417079817	357.306069814184	1135.489558558716	467.311561834655	346.828062498321	1018.624093545153	377.844432598736	298.966222807381	1059.184761573280	250.459818637120	346.922148655695	993.058993720491	401.986988291129	581.166604818717	918.493452962110	300.203383600479	641.800512157100	955.287951103019	205.113300936923	575.402716341043	814.865000771759	42.837076962548	543.300298379109	986.095237061729	96.807493502592	579.883612744812	897.098091380719	37.024472828023	618.085534443061	1105.718152001751	42.406410805890	610.385220797334	911.097024324404	117.892950923906	386.639570986388	978.139001035549	97.543569043765	303.681546053587	1073.128504159211	143.716430609005	322.324469475722	1185.532502611162	69.041579845354	289.365748213248	872.614900820924	1077.031258552214	245.299338979728	892.510749542990	816.797764575809	235.646639124004	1036.336866967308	1094.534806567910	779.107032978182	1231.256141877520	932.468610159829	725.285595503881	
107	11.116571428571	783.515909321007	1018.695381736952	537.666172713471	969.211771039808	1425.646188601415	319.607094942227	1091.761658999160	1348.897098396226	464.133874608468	1046.725570841268	1438.807099487402	645.102189707242	1004.007162805011	1489.400068889323	468.050512578510	1018.807297232035	938.253887775112	623.122465063769	970.583245202699	962.847250440389	353.126867724673	1043.162280687991	735.105812793511	591.509271752335	958.081386749136	631.846596832217	655.494904892791	1024.451006141723	576.480456427158	569.116084256760	1018.097400668940	488.311473890684	574.041671233377	1066.587882561877	807.223658658826	384.998291223455	1040.584674445903	676.426488599896	305.123171818027	1151.092625057604	627.888446603074	367.221181263482	1181.319258291661	547.782803084532	358.060080832938	1140.869727033596	470.614440744304	347.285262064411	1030.429862350048	374.414219413064	297.730563562286	1078.043899234858	249.334878971212	346.275966818540	986.576702156142	401.452483410255	581.219017092083	911.662426587193	299.975724261548	641.926092440297	947.784274432875	204.767220040006	575.405624826080	806.693006013668	42.834754154001	543.313559881252	977.862588856193	96.656292686842	579.796057615688	888.941632939328	36.996430308815	618.133948578544	1097.554367228543	42.311374894147	610.423108835852	938.115156872335	107.400719531514	384.098538913625	1007.294591142092	91.733212683286	301.933763001351	1098.926365766286	143.625805955798	321.795848649894	1216.186537904014	76.238200559108	290.117812565090	865.227649477098	1078.248653202525	246.515324991302	871.846541280494	817.689094856561	237.826054773115	1048.108658538954	1094.170969993189	777.900917643604	1253.460533363706	949.334328638367	717.481421678959	
108	11.128142857143	782.493138808923	1018.758955427755	538.194945442455	967.987020977988	1425.258069276981	319.656314506245	1090.982940078356	1348.391876170700	463.714968644424	1046.913344596407	1438.470402463157	644.862097620806	1003.415674349799	1489.101164219092	468.021489017817	1017.726358390344	937.935631507777	623.218080246196	969.317730882139	962.833036375743	353.098524863635	1039.941572250765	734.128621475621	591.433754100546	953.878026532748	631.562449629675	655.758512239772	1019.314103838441	575.462760640930	569.288806201631	1011.884472430807	487.676685715032	574.157340419767	1064.970350430262	807.989163552094	385.337599555848	1040.215077502989	677.007865461971	305.008238981044	1150.360339075866	629.301495395032	368.098796330183	1182.224401131509	551.173752260110	359.079071543681	1145.573285652523	473.548499885881	347.980112280628	1041.995422818940	371.221585159512	296.269556214704	1095.955988138891	248.800689108718	345.750139901574	980.097718546369	400.934964882784	581.253190757439	904.829502117018	299.780668850465	642.044181666062	940.286918508419	204.448502641653	575.405162346506	798.523405747719	42.861642895188	543.326303159631	969.656398208925	96.524665814788	579.733406120606	880.788646333195	36.978218616683	618.177230654348	1089.399759360593	42.200970090460	610.463502878133	964.250916877381	98.375731367201	381.035939641824	1035.673244675791	87.242814965191	300.083084208188	1123.589150796085	144.442309015455	321.594105926915	1245.207217774321	84.296567018186	291.934203741705	857.426611154883	1079.859531321789	247.340979701679	852.562246933190	819.634975807048	239.934957875905	1060.079073141211	1094.178432157419	776.319456641961	1274.297542959696	967.465562579466	709.219009257369	
109	11.139714285714	781.596271246624	1018.737280574411	538.441195225958	966.843279916837	1424.918238892571	319.617522971827	1090.216309530980	1347.898324835198	463.243366549414	1047.000849228244	1438.099851783159	644.544858685637	1002.835892381252	1488.801873261864	467.936599505609	1016.707742659356	937.667161481240	623.287309604445	968.370984259184	962.734229476609	352.946412889690	1036.767330821670	733.168821922700	591.449832842943	949.589148217473	631.287970201382	655.972613333005	1014.182350590747	574.443533143856	569.524695761986	1005.674175521789	487.068825356396	574.293548312641	1063.352596963086	808.283413541802	385.750003631691	1039.714227848011	677.219937216328	304.839382441285	1149.293547107392	630.088757278694	369.044156291400	1182.626315780070	553.974171495234	360.280153659367	1149.620020538060	476.079986447624	348.833837141316	1053.113622991281	368.298564370069	294.685162484197	1112.686237919633	248.777902674628	345.367374320139	973.590535477668	400.448401177660	581.273581095291	897.966048126163	299.630952704459	642.156085719797	932.780505237542	204.170480963979	575.406569719664	790.357005866396	42.914979151418	543.340885024465	961.477452379854	96.417000551236	579.699551190344	872.637668513097	36.970907195652	618.217096432219	1081.253011064674	42.078892724742	610.506317146316	989.103671784962	90.793721130585	377.712247867588	1062.778409596755	83.980355733255	298.276366557658	1146.755459286332	146.022071238040	321.705816073936	1272.196600049043	92.940646333446	294.614402326917	849.344264469242	1081.874194632022	247.805367626866	834.735450521353	822.380036947842	241.979288448872	1072.196402430810	1094.613193817507	774.347567402774	1293.609768212343	986.657186529067	700.598641865272	
110	11.151285714286	780.852765329284	1018.633427153468	538.408730285501	965.762813542920	1424.642518059625	319.497429447572	1089.454224108841	1347.442308608252	462.722139246751	1046.981250706358	1437.721146393743	644.150002950601	1002.248857217995	1488.516092611281	467.798661501054	1015.779514583177	937.457776931195	623.319100542753	967.755257003553	962.554071371191	352.663982677940	1033.636667217070	732.232325803561	591.550243768913	945.205681858565	631.037998962447	656.131903362990	1009.032053231356	573.437325679440	569.815493459913	999.445693214713	486.492893553457	574.444469522092	1061.820300241825	808.157590724591	386.217360612220	1039.143796567680	677.092853071809	304.618592472617	1148.013804983575	630.300167029920	369.967480698988	1182.607275306953	556.173731946314	361.556228926049	1153.031225234836	478.166308257243	349.745222147116	1063.541258573028	365.632221564140	293.100203789944	1128.012031455015	249.132013457317	345.138600091166	967.030694279195	400.005212164563	581.287319909654	891.047915304067	299.536605963321	642.264417457635	925.251836620566	203.943248196381	575.416227412466	782.194364863478	42.991651715094	543.358655424023	953.324806279415	96.334821296341	579.695761313106	864.487445073969	36.975271333309	618.256181694546	1073.112149832542	41.948003042445	610.550338581490	1012.287737263170	84.541872434654	374.441838477787	1088.096661040516	81.761778403338	296.669568706893	1168.073971524054	148.146987036355	322.086540247775	1296.778906640300	101.812434082432	297.848055336514	841.130983325983	1084.281125395967	247.947807368734	818.373733533272	825.698753848946	243.968180342183	1084.392506593350	1095.527766408663	771.979000035274	1311.278457344876	1006.683476778854	691.730536775522	
